<svg id="Calque_1" data-name="Calque 1" xmlns="http://www.w3.org/2000/svg" viewBox="0 0 872.47 227.68"><defs><style>.cls-1{fill:#1d1d1b;}.cls-2{stroke:#000;stroke-linecap:square;stroke-miterlimit:10;stroke-width:6px;}</style></defs><title>groupomania_social</title><g id="_640fb903-7c97-3a8b-d0a7-369102908d0a" data-name="640fb903-7c97-3a8b-d0a7-369102908d0a"><path class="cls-1" d="M158,240.59A106.75,106.75,0,0,0,233.48,58.52a106.75,106.75,0,0,0-151,151A105.87,105.87,0,0,0,158,240.59Zm6.12-18.1a50.11,50.11,0,0,1-6.12.25c-2.81,0-5.61-.25-8.41-.51a154.83,154.83,0,0,1-20.15-45.64h45.14a22,22,0,0,0,7.65,9.68A155.57,155.57,0,0,1,164.12,222.49Zm24.22-5.1a160.52,160.52,0,0,0,11.74-27.29,22.15,22.15,0,0,0,16.06-13.51h19.64A91,91,0,0,1,188.34,217.39ZM246.49,134a97.78,97.78,0,0,1-3.32,24.48H215.63a23.4,23.4,0,0,0-7.14-8.67q.76-8.42.76-16.83a178.24,178.24,0,0,0-1.53-23.46h35.19A78,78,0,0,1,246.48,134ZM235.78,91.41H204.67a171.91,171.91,0,0,0-14.79-40A90.3,90.3,0,0,1,235.78,91.41ZM191.41,133c0,4.34-.26,8.67-.51,13a22.07,22.07,0,0,0-15.81,12.49H125.87a177.79,177.79,0,0,1-1.78-23.21,138.65,138.65,0,0,1,.76-14.53,23,23,0,0,0,15.3-11.22h49.73A178.35,178.35,0,0,1,191.41,133Zm-40-87.21a58.78,58.78,0,0,1,6.63-.26,75.21,75.21,0,0,1,7.65.26A155.09,155.09,0,0,1,185.8,91.41H141.43a24.36,24.36,0,0,0-7.91-11,165.47,165.47,0,0,1,17.85-34.68Zm-24.22,5.1a188.14,188.14,0,0,0-11.22,25.5A22.54,22.54,0,0,0,99.1,91.16H80.48A89.61,89.61,0,0,1,127.15,50.87ZM69.52,134a86.25,86.25,0,0,1,3.56-24.48h27.8a25.24,25.24,0,0,0,6.37,7.39c-.51,6.12-1,12.24-1,18.36a172.79,172.79,0,0,0,1.53,23.21H73.08A79,79,0,0,1,69.52,134Zm41.31,42.33a175.78,175.78,0,0,0,14.79,40,89.32,89.32,0,0,1-45.39-40Z" transform="translate(-51.41 -27.41)"/></g><path class="cls-2" d="M361.06,144.24a46.82,46.82,0,0,1-23.43,6q-15,0-24.25-9.67t-9.25-25.59q0-16.26,10.28-26.68t26-10.43q11.43,0,19.19,3.71v9.09q-8.5-5.38-20.12-5.38t-19.29,8.11q-7.51,8.1-7.52,21,0,13.27,7,20.87t18.94,7.59a29.27,29.27,0,0,0,14.21-3.27V119.92H337.53V112.5h23.53Z" transform="translate(-51.41 -27.41)"/><path class="cls-2" d="M404.82,107.13a9.73,9.73,0,0,0-6.05-1.61q-5.13,0-8.57,4.83t-3.44,13.19V149h-8V99h8v10.31H387a17.41,17.41,0,0,1,5.23-8.23,11.9,11.9,0,0,1,7.86-3,12.92,12.92,0,0,1,4.78.69Z" transform="translate(-51.41 -27.41)"/><path class="cls-2" d="M435.6,150.2q-11.09,0-17.7-7t-6.62-18.58q0-12.6,6.88-19.68t18.61-7.08q11.18,0,17.45,6.89t6.28,19.09q0,12-6.76,19.16T435.6,150.2Zm.58-45.61q-7.71,0-12.21,5.25t-4.49,14.48q0,8.88,4.54,14t12.16,5.13q7.77,0,11.94-5t4.17-14.31q0-9.37-4.17-14.45T436.18,104.59Z" transform="translate(-51.41 -27.41)"/><path class="cls-2" d="M516.22,149h-8v-7.91H508q-5,9.09-15.43,9.09-17.88,0-17.87-21.29V99h8v28.62q0,15.81,12.11,15.82a12.25,12.25,0,0,0,9.64-4.32c2.52-2.89,3.78-6.65,3.78-11.31V99h8Z" transform="translate(-51.41 -27.41)"/><path class="cls-2" d="M543.09,141.8h-.2V172h-8V99h8v8.79h.2q5.89-10,17.28-10,9.68,0,15.09,6.72t5.42,18q0,12.54-6.1,20.09t-16.7,7.55A16.72,16.72,0,0,1,543.09,141.8Zm-.2-20.17v7a14.87,14.87,0,0,0,4,10.53,14.37,14.37,0,0,0,21.63-1.25q4.13-5.56,4.13-15.48c0-5.56-1.29-9.93-3.86-13.08a12.77,12.77,0,0,0-10.45-4.74,14.18,14.18,0,0,0-11.23,4.86A17.85,17.85,0,0,0,542.89,121.63Z" transform="translate(-51.41 -27.41)"/><path class="cls-2" d="M617.07,150.2q-11.09,0-17.7-7t-6.62-18.58q0-12.6,6.89-19.68t18.6-7.08q11.19,0,17.46,6.89T642,123.83q0,12-6.76,19.16T617.07,150.2Zm.59-45.61q-7.73,0-12.21,5.25T601,124.32q0,8.88,4.54,14t12.16,5.13q7.76,0,11.93-5t4.18-14.31q0-9.37-4.18-14.45T617.66,104.59Z" transform="translate(-51.41 -27.41)"/><path class="cls-2" d="M728.26,149h-8V120.31q0-8.3-2.56-12t-8.62-3.71q-5.13,0-8.71,4.69a17.88,17.88,0,0,0-3.59,11.23V149h-8V119.34q0-14.75-11.38-14.75a10.54,10.54,0,0,0-8.69,4.42q-3.42,4.42-3.42,11.5V149h-8V99h8v7.91h.2q5.32-9.08,15.53-9.08a14.47,14.47,0,0,1,14.16,10.35q5.57-10.35,16.6-10.35,16.5,0,16.5,20.36Z" transform="translate(-51.41 -27.41)"/><path class="cls-2" d="M781.69,149h-8v-7.81h-.19q-5.24,9-15.38,9-7.47,0-11.7-4a13.7,13.7,0,0,1-4.22-10.5q0-14,16.5-16.31l15-2.1q0-12.73-10.3-12.74a24.63,24.63,0,0,0-16.31,6.15v-8.2a31,31,0,0,1,17-4.69q17.63,0,17.63,18.65Zm-8-25.29-12.06,1.66q-5.57.78-8.4,2.76c-1.89,1.32-2.83,3.65-2.83,7a7.64,7.64,0,0,0,2.61,6,10.12,10.12,0,0,0,7,2.32,12.84,12.84,0,0,0,9.84-4.18,14.89,14.89,0,0,0,3.88-10.57Z" transform="translate(-51.41 -27.41)"/><path class="cls-2" d="M840.78,149h-8V120.51q0-15.92-11.62-15.92a12.6,12.6,0,0,0-9.93,4.52,16.69,16.69,0,0,0-3.93,11.4V149h-8V99h8v8.3h.19q5.67-9.46,16.41-9.47,8.21,0,12.55,5.3t4.34,15.31Z" transform="translate(-51.41 -27.41)"/><path class="cls-2" d="M862.47,86.33a5.06,5.06,0,0,1-3.66-1.47,4.93,4.93,0,0,1-1.52-3.71,5.14,5.14,0,0,1,5.18-5.22,5.15,5.15,0,0,1,3.74,1.49,5.23,5.23,0,0,1,0,7.39A5.14,5.14,0,0,1,862.47,86.33ZM866.38,149h-8V99h8Z" transform="translate(-51.41 -27.41)"/><path class="cls-2" d="M920.88,149h-8v-7.81h-.19q-5.23,9-15.39,9-7.47,0-11.69-4a13.7,13.7,0,0,1-4.22-10.5q0-14,16.5-16.31l15-2.1q0-12.73-10.3-12.74a24.63,24.63,0,0,0-16.31,6.15v-8.2a30.93,30.93,0,0,1,17-4.69q17.63,0,17.63,18.65Zm-8-25.29-12.06,1.66q-5.56.78-8.4,2.76c-1.89,1.32-2.83,3.65-2.83,7a7.64,7.64,0,0,0,2.61,6,10.12,10.12,0,0,0,7,2.32,12.84,12.84,0,0,0,9.84-4.18,14.89,14.89,0,0,0,3.88-10.57Z" transform="translate(-51.41 -27.41)"/><path class="cls-2" d="M287.17,248.09v-9.67a18.35,18.35,0,0,0,4,2.64,32.34,32.34,0,0,0,4.88,2,39.73,39.73,0,0,0,5.15,1.24,29.1,29.1,0,0,0,4.79.44q7.56,0,11.3-2.81a10.51,10.51,0,0,0,2.49-13,14,14,0,0,0-3.44-3.83,33.57,33.57,0,0,0-5.2-3.32q-3-1.59-6.47-3.35c-2.44-1.23-4.72-2.49-6.84-3.76a30.11,30.11,0,0,1-5.52-4.2,17.41,17.41,0,0,1-3.68-5.2,17.73,17.73,0,0,1,.76-15.13,17.89,17.89,0,0,1,5.51-5.84,25.11,25.11,0,0,1,7.79-3.42,35.55,35.55,0,0,1,8.91-1.12q10.35,0,15.09,2.49v9.23q-6.19-4.3-15.92-4.3a26.47,26.47,0,0,0-5.37.56,15.44,15.44,0,0,0-4.78,1.83,10.62,10.62,0,0,0-3.42,3.28,8.66,8.66,0,0,0-1.32,4.88,10,10,0,0,0,1,4.64,11.38,11.38,0,0,0,2.95,3.56,29.2,29.2,0,0,0,4.77,3.13c1.87,1,4,2.11,6.46,3.32s4.89,2.54,7.13,3.9a32.5,32.5,0,0,1,5.91,4.54,20.17,20.17,0,0,1,4,5.52,15.56,15.56,0,0,1,1.49,6.94,17.57,17.57,0,0,1-2,8.76,16.52,16.52,0,0,1-5.47,5.83,23.86,23.86,0,0,1-7.93,3.25,43.3,43.3,0,0,1-9.47,1,38.2,38.2,0,0,1-4.1-.27c-1.63-.17-3.29-.44-5-.78a38.78,38.78,0,0,1-4.81-1.27A14.63,14.63,0,0,1,287.17,248.09Z" transform="translate(-51.41 -27.41)"/><path class="cls-2" d="M365.89,252.09q-11.08,0-17.7-7t-6.62-18.58q0-12.6,6.89-19.68t18.6-7.08q11.18,0,17.46,6.88t6.27,19.1q0,12-6.76,19.16T365.89,252.09Zm.58-45.6q-7.71,0-12.2,5.25t-4.49,14.47q0,8.89,4.54,14c3,3.42,7.08,5.12,12.15,5.12s9.16-1.67,11.94-5,4.18-8.13,4.18-14.31-1.39-11.07-4.18-14.45S371.65,206.49,366.47,206.49Z" transform="translate(-51.41 -27.41)"/><path class="cls-2" d="M440.17,248.63a26.06,26.06,0,0,1-13.68,3.46q-10.68,0-17.26-7t-6.56-18q0-12.34,7.08-19.85t18.89-7.49a26.24,26.24,0,0,1,11.62,2.44v8.2a20.37,20.37,0,0,0-11.91-3.9A16.1,16.1,0,0,0,415.78,212q-4.92,5.49-4.91,14.43,0,8.79,4.61,13.87t12.38,5.07A20.08,20.08,0,0,0,440.17,241Z" transform="translate(-51.41 -27.41)"/><path class="cls-2" d="M458.88,188.23a5.07,5.07,0,0,1-3.67-1.47,5,5,0,0,1-1.51-3.71,5.11,5.11,0,0,1,5.18-5.22,5.16,5.16,0,0,1,3.73,1.48,5,5,0,0,1,1.54,3.74,4.93,4.93,0,0,1-1.54,3.66A5.12,5.12,0,0,1,458.88,188.23Zm3.9,62.69h-8v-50h8Z" transform="translate(-51.41 -27.41)"/><path class="cls-2" d="M517.29,250.92h-8v-7.81h-.2q-5.22,9-15.38,9-7.47,0-11.69-4a13.7,13.7,0,0,1-4.23-10.5q0-14,16.51-16.31l15-2.1q0-12.73-10.31-12.74a24.6,24.6,0,0,0-16.3,6.15v-8.2a30.93,30.93,0,0,1,17-4.69q17.63,0,17.63,18.65Zm-8-25.29-12.06,1.66q-5.57.78-8.4,2.76t-2.83,7a7.65,7.65,0,0,0,2.61,6,10.12,10.12,0,0,0,7,2.31,12.87,12.87,0,0,0,9.84-4.17,15,15,0,0,0,3.88-10.57Z" transform="translate(-51.41 -27.41)"/><path class="cls-2" d="M542.88,250.92h-8v-74h8Z" transform="translate(-51.41 -27.41)"/></svg>